<svg xmlns="http://www.w3.org/2000/svg" xmlns:xlink="http://www.w3.org/1999/xlink" xmlns:xodm="http://www.corel.com/coreldraw/odm/2003" xml:space="preserve" width="9.31939in" height="2.3877in" style="shape-rendering:geometricPrecision; text-rendering:geometricPrecision; image-rendering:optimizeQuality; fill-rule:evenodd; clip-rule:evenodd" viewBox="0 0 9318.98 2387.59">
 <defs>
  <style type="text/css">
   <![CDATA[
    .fil0 {fill:#0456A2}
    .fil1 {fill:#E53A24}
    .fil2 {fill:#E53A24;fill-rule:nonzero}
   ]]>
  </style>
 </defs>
 <g id="&#x421;&#x43B;&#x43E;&#x439;_x0020_1">
  <metadata id="CorelCorpID_0Corel-Layer"></metadata>
  <g id="_1079604368">
   <g>
    <path class="fil0" d="M1180.22 2212.09c13.88,2.44 27.25,-6.93 29.7,-20.81l106.79 -605.93c2.46,-13.94 -6.85,-27.24 -20.8,-29.7 -13.94,-2.46 -27.24,6.85 -29.7,20.8l-106.79 605.94c-2.46,13.94 6.85,27.24 20.79,29.7zm205.14 -625.21c0,-14.15 -11.48,-25.64 -25.64,-25.64 -14.16,0 -25.64,11.48 -25.64,25.64l0 775.08c0,14.16 11.48,25.64 25.64,25.64 14.09,0 25.64,-11.56 25.64,-25.65l0 -775.07zm38.16 -31.24c-13.89,2.45 -23.24,15.83 -20.79,29.71 35.61,201.98 71.23,403.96 106.84,605.94 2.46,13.94 15.76,23.25 29.7,20.8 13.94,-2.46 23.25,-15.76 20.79,-29.7 -35.62,-201.99 -71.23,-403.97 -106.85,-605.96 -2.46,-13.94 -15.76,-23.25 -29.7,-20.79zm61.87 -16.57c-13.24,4.82 -20.14,19.63 -15.31,32.87 59.08,162.31 118.17,324.62 177.24,486.94 4.84,13.3 19.56,20.16 32.86,15.32 13.3,-4.84 20.16,-19.56 15.32,-32.86 -59.08,-162.32 -118.17,-324.63 -177.25,-486.95 -4.84,-13.3 -19.55,-20.16 -32.86,-15.32zm58.05 -27.07c-12.21,7.05 -16.42,22.83 -9.38,35.03l230.94 400.12c7.07,12.26 22.76,16.46 35.02,9.39 12.26,-7.08 16.46,-22.76 9.39,-35.02l-230.94 -400.13c-7.07,-12.26 -22.76,-16.46 -35.02,-9.38zm52.47 -36.73c-10.8,9.06 -12.21,25.33 -3.15,36.12l280.14 333.86c9.1,10.84 25.27,12.26 36.12,3.16 10.85,-9.1 12.26,-25.28 3.16,-36.12l-280.15 -333.87c-9.1,-10.84 -25.27,-12.26 -36.12,-3.15zm45.29 -45.29c-9.06,10.79 -7.63,27.07 3.17,36.12l333.86 280.15c10.84,9.09 27.02,7.68 36.12,-3.16 9.1,-10.85 7.68,-27.02 -3.16,-36.12l-333.87 -280.15c-10.84,-9.1 -27.01,-7.68 -36.12,3.17zm36.74 -52.47c-7.05,12.21 -2.81,27.98 9.39,35.03l377.43 217.91c12.26,7.08 27.94,2.88 35.02,-9.38 7.08,-12.26 2.87,-27.95 -9.39,-35.03l-377.44 -217.92c-12.26,-7.08 -27.94,-2.87 -35.02,9.39zm27.07 -58.05c-4.82,13.25 2.09,28.05 15.33,32.86l409.54 149.06c13.3,4.84 28.02,-2.02 32.86,-15.32 4.85,-13.3 -2.02,-28.02 -15.33,-32.86l-409.55 -149.06c-13.3,-4.84 -28.01,2.02 -32.86,15.32zm16.58 -61.87c-2.44,13.88 6.93,27.26 20.81,29.7l429.2 75.68c13.94,2.46 27.24,-6.85 29.7,-20.79 2.46,-13.94 -6.86,-27.24 -20.8,-29.7l-429.21 -75.68c-13.94,-2.46 -27.24,6.85 -29.7,20.79zm-1203.47 84.59c2.45,13.88 15.83,23.24 29.71,20.79l429.2 -75.68c13.94,-2.46 23.25,-15.76 20.8,-29.7 -2.46,-13.94 -15.76,-23.25 -29.7,-20.79l-429.21 75.68c-13.94,2.46 -23.25,15.76 -20.8,29.7zm38.56 143.89c4.82,13.24 19.63,20.14 32.87,15.32l409.54 -149.06c13.3,-4.84 20.16,-19.56 15.32,-32.86 -4.84,-13.3 -19.55,-20.16 -32.86,-15.32l-409.55 149.06c-13.31,4.84 -20.16,19.56 -15.33,32.86zm62.96 135.01c7.05,12.2 22.83,16.42 35.03,9.38l377.44 -217.91c12.26,-7.07 16.46,-22.76 9.38,-35.02 -7.08,-12.26 -22.76,-16.46 -35.02,-9.38l-377.44 217.92c-12.26,7.08 -16.46,22.76 -9.39,35.02zm85.45 122.02c9.06,10.8 25.33,12.21 36.13,3.15l333.86 -280.14c10.84,-9.1 12.26,-25.27 3.16,-36.12 -9.1,-10.84 -25.27,-12.26 -36.12,-3.16l-333.87 280.15c-10.85,9.1 -12.26,25.27 -3.16,36.12zm105.33 105.33c10.8,9.06 27.07,7.63 36.13,-3.17l280.14 -333.86c9.09,-10.84 7.68,-27.02 -3.16,-36.12 -10.85,-9.1 -27.02,-7.68 -36.12,3.16l-280.15 333.87c-9.1,10.85 -7.68,27.02 3.16,36.12zm108.94 108.14c12.2,7.05 27.98,2.81 35.03,-9.39 77,-133.38 154,-266.76 231,-400.14 7.07,-12.26 2.88,-27.94 -9.39,-35.02 -12.26,-7.08 -27.94,-2.88 -35.02,9.39 -77.01,133.38 -154,266.76 -231.01,400.14 -7.08,12.26 -2.88,27.94 9.39,35.02zm119.91 117.7c13.25,4.82 28.05,-2.09 32.86,-15.33 59.08,-162.33 118.16,-324.66 177.25,-486.99 4.84,-13.3 -2.02,-28.02 -15.32,-32.86 -13.31,-4.84 -28.02,2.02 -32.86,15.32 -59.08,162.34 -118.17,324.67 -177.25,487.01 -4.84,13.3 2.02,28.01 15.32,32.86z"></path>
    <path class="fil1" d="M880.23 800.72c0,14.15 -11.48,25.64 -25.64,25.64 -14.16,0 -25.64,-11.48 -25.64,-25.64l0 -775.08c0,-14.16 11.48,-25.64 25.64,-25.64 14.09,0 25.64,11.55 25.64,25.64l0 775.07zm38.16 31.24c-13.88,-2.45 -23.24,-15.83 -20.79,-29.71 35.61,-201.98 71.23,-403.96 106.84,-605.95 2.46,-13.94 15.76,-23.25 29.7,-20.79 13.94,2.46 23.25,15.76 20.79,29.7 -35.62,201.98 -71.23,403.97 -106.85,605.96 -2.46,13.94 -15.76,23.25 -29.7,20.79zm-212.2 1203.48c-13.89,-2.45 -23.24,-15.83 -20.8,-29.71l75.68 -429.21c2.45,-13.93 15.76,-23.25 29.7,-20.79 13.94,2.46 23.25,15.76 20.79,29.7l-75.68 429.21c-2.46,13.94 -15.76,23.25 -29.7,20.8zm274.07 -1186.9c-13.24,-4.82 -20.14,-19.63 -15.31,-32.86 59.08,-162.32 118.17,-324.63 177.24,-486.94 4.84,-13.3 19.56,-20.16 32.86,-15.32 13.3,4.84 20.16,19.55 15.32,32.86 -59.08,162.32 -118.17,324.64 -177.25,486.95 -4.84,13.3 -19.55,20.16 -32.86,15.32zm-417.96 1148.35c-13.25,-4.82 -20.14,-19.63 -15.32,-32.87l149.06 -409.54c4.84,-13.29 19.56,-20.16 32.86,-15.32 13.3,4.85 20.16,19.56 15.32,32.86l-149.06 409.55c-4.84,13.3 -19.56,20.16 -32.86,15.32zm476.01 -1121.28c-12.21,-7.05 -16.42,-22.83 -9.38,-35.03l230.94 -400.12c7.07,-12.26 22.76,-16.46 35.02,-9.38 12.26,7.08 16.46,22.76 9.39,35.02l-230.94 400.14c-7.07,12.26 -22.76,16.46 -35.02,9.38zm-611.02 1058.32c-12.21,-7.05 -16.42,-22.83 -9.38,-35.03l217.91 -377.43c7.07,-12.26 22.76,-16.46 35.03,-9.38 12.26,7.08 16.46,22.76 9.38,35.02l-217.92 377.44c-7.08,12.26 -22.76,16.46 -35.02,9.39zm663.49 -1021.58c-10.8,-9.06 -12.21,-25.33 -3.15,-36.12l280.14 -333.86c9.1,-10.84 25.27,-12.26 36.12,-3.16 10.85,9.1 12.26,25.27 3.16,36.12l-280.15 333.87c-9.1,10.84 -25.27,12.26 -36.12,3.16zm-785.51 936.14c-10.8,-9.06 -12.21,-25.33 -3.16,-36.13l280.14 -333.86c9.1,-10.84 25.28,-12.26 36.12,-3.16 10.84,9.1 12.26,25.27 3.15,36.12l-280.15 333.87c-9.1,10.85 -25.28,12.26 -36.12,3.16zm830.8 -890.85c-9.06,-10.8 -7.63,-27.07 3.17,-36.12l333.86 -280.14c10.84,-9.1 27.02,-7.68 36.12,3.16 9.1,10.85 7.68,27.02 -3.16,36.12l-333.87 280.15c-10.84,9.1 -27.01,7.68 -36.12,-3.16zm-936.14 785.52c-9.06,-10.8 -7.63,-27.07 3.17,-36.13l333.86 -280.14c10.84,-9.1 27.02,-7.68 36.12,3.16 9.09,10.85 7.68,27.01 -3.17,36.12l-333.87 280.15c-10.84,9.1 -27.02,7.68 -36.12,-3.16zm972.87 -733.05c-7.05,-12.21 -2.81,-27.98 9.39,-35.03l377.43 -217.91c12.26,-7.07 27.94,-2.87 35.02,9.39 7.08,12.26 2.87,27.94 -9.39,35.02l-377.44 217.92c-12.26,7.08 -27.94,2.87 -35.02,-9.39zm-1058.32 611.02c-7.05,-12.21 -2.81,-27.98 9.39,-35.03l377.43 -217.91c12.25,-7.07 27.94,-2.87 35.02,9.39 7.07,12.26 2.87,27.94 -9.39,35.02l-377.44 217.92c-12.26,7.08 -27.94,2.87 -35.02,-9.38zm1085.38 -552.97c-4.82,-13.25 2.09,-28.05 15.33,-32.86l409.54 -149.06c13.3,-4.84 28.02,2.02 32.86,15.33 4.85,13.3 -2.02,28.02 -15.33,32.86l-409.55 149.06c-13.3,4.84 -28.01,-2.02 -32.86,-15.32zm-1148.34 417.97c-4.82,-13.25 2.09,-28.04 15.33,-32.87l409.54 -149.06c13.29,-4.84 28.02,2.02 32.86,15.32 4.84,13.31 -2.02,28.01 -15.33,32.86l-409.55 149.06c-13.3,4.84 -28.02,-2.02 -32.86,-15.32zm1164.92 -356.09c-2.44,-13.88 6.93,-27.25 20.81,-29.7l429.2 -75.68c13.94,-2.46 27.24,6.85 29.7,20.79 2.46,13.94 -6.86,27.24 -20.8,29.7l-429.21 75.68c-13.94,2.46 -27.24,-6.86 -29.7,-20.8zm-1203.47 212.21c-2.44,-13.88 6.93,-27.25 20.81,-29.7l429.2 -75.68c13.94,-2.46 27.24,6.85 29.7,20.79 2.46,13.94 -6.86,27.24 -20.8,29.7l-429.21 75.68c-13.94,2.46 -27.24,-6.86 -29.7,-20.79zm1209.06 -148.39c0,-14.1 11.56,-25.64 25.65,-25.64l435.82 -0c14.16,0 25.64,11.48 25.64,25.64 0,14.16 -11.48,25.64 -25.64,25.64l-435.83 0c-14.16,0 -25.63,-11.48 -25.64,-25.64zm-1222.04 0c0,-14.09 11.56,-25.64 25.65,-25.64l435.82 0c14.15,0 25.64,11.48 25.64,25.64 0,14.16 -11.48,25.64 -25.64,25.64l-435.83 0c-14.16,0 -25.64,-11.48 -25.64,-25.64zm1216.46 63.81c2.45,-13.88 15.83,-23.24 29.71,-20.79l429.2 75.68c13.94,2.46 23.25,15.76 20.79,29.7 -2.46,13.94 -15.76,23.25 -29.7,20.79l-429.21 -75.68c-13.94,-2.46 -23.25,-15.76 -20.79,-29.7zm-1203.47 -212.2c2.45,-13.88 15.83,-23.24 29.71,-20.79l429.2 75.68c13.94,2.46 23.25,15.76 20.8,29.7 -2.46,13.94 -15.76,23.25 -29.7,20.79l-429.21 -75.68c-13.94,-2.46 -23.25,-15.76 -20.8,-29.7zm1186.9 274.07c4.82,-13.25 19.63,-20.14 32.87,-15.32l409.54 149.06c13.3,4.84 20.17,19.55 15.33,32.86 -4.84,13.31 -19.56,20.17 -32.86,15.33l-409.55 -149.06c-13.3,-4.84 -20.16,-19.56 -15.32,-32.86zm-1148.34 -417.96c4.82,-13.24 19.63,-20.14 32.87,-15.32l409.54 149.06c13.3,4.84 20.16,19.55 15.32,32.86 -4.84,13.3 -19.56,20.16 -32.86,15.32l-409.55 -149.06c-13.31,-4.84 -20.16,-19.55 -15.33,-32.86zm1121.28 476.01c7.05,-12.21 22.83,-16.42 35.03,-9.38l377.43 217.91c12.26,7.08 16.46,22.76 9.39,35.02 -7.08,12.26 -22.77,16.46 -35.02,9.39l-377.44 -217.92c-12.26,-7.07 -16.46,-22.76 -9.38,-35.02zm-1058.32 -611.02c7.05,-12.21 22.83,-16.42 35.03,-9.38l377.44 217.91c12.26,7.08 16.46,22.76 9.38,35.02 -7.08,12.26 -22.76,16.46 -35.02,9.38l-377.44 -217.92c-12.26,-7.07 -16.46,-22.76 -9.39,-35.02zm1021.58 663.49c9.06,-10.8 25.33,-12.21 36.13,-3.15l333.86 280.14c10.84,9.09 12.26,25.27 3.16,36.12 -9.1,10.85 -25.28,12.26 -36.12,3.16l-333.87 -280.15c-10.85,-9.1 -12.26,-25.27 -3.16,-36.12zm-936.14 -785.52c9.06,-10.79 25.33,-12.21 36.13,-3.15l333.86 280.15c10.84,9.09 12.26,25.27 3.16,36.12 -9.1,10.85 -25.27,12.26 -36.12,3.16l-333.87 -280.15c-10.85,-9.1 -12.26,-25.27 -3.16,-36.12zm890.85 830.81c10.8,-9.06 27.07,-7.63 36.12,3.17l280.14 333.86c9.1,10.84 7.69,27.02 -3.16,36.12 -10.85,9.1 -27.02,7.68 -36.12,-3.16l-280.15 -333.87c-9.1,-10.85 -7.68,-27.02 3.16,-36.12zm-785.51 -936.14c10.8,-9.06 27.07,-7.63 36.13,3.17l280.14 333.86c9.09,10.84 7.68,27.02 -3.16,36.12 -10.85,9.1 -27.02,7.68 -36.12,-3.16l-280.15 -333.87c-9.1,-10.84 -7.68,-27.02 3.16,-36.12zm733.05 972.88c12.21,-7.05 27.98,-2.81 35.03,9.39l217.91 377.44c7.07,12.26 2.88,27.94 -9.39,35.02 -12.26,7.08 -27.94,2.87 -35.02,-9.39l-217.92 -377.44c-7.08,-12.26 -2.87,-27.94 9.39,-35.02zm-624.11 -1081.03c12.2,-7.05 27.98,-2.81 35.03,9.39 77,133.38 154,266.76 231,400.14 7.07,12.26 2.88,27.94 -9.39,35.02 -12.26,7.07 -27.94,2.87 -35.02,-9.39 -77.01,-133.38 -154,-266.77 -231.01,-400.15 -7.08,-12.26 -2.88,-27.94 9.39,-35.02zm566.06 1108.09c13.25,-4.82 28.05,2.09 32.86,15.33l149.06 409.54c4.84,13.3 -2.02,28.02 -15.32,32.86 -13.3,4.84 -28.02,-2.02 -32.86,-15.32l-149.06 -409.55c-4.84,-13.3 2.02,-28.02 15.32,-32.86zm-446.15 -1225.8c13.25,-4.82 28.05,2.09 32.86,15.33 59.08,162.33 118.16,324.67 177.25,486.99 4.84,13.3 -2.02,28.02 -15.33,32.86 -13.3,4.84 -28.01,-2.02 -32.86,-15.32 -59.08,-162.34 -118.17,-324.67 -177.25,-487 -4.84,-13.31 2.02,-28.02 15.32,-32.86zm384.28 1242.37c13.88,-2.44 27.25,6.93 29.7,20.81l75.68 429.2c2.46,13.94 -6.85,27.24 -20.79,29.7 -13.94,2.46 -27.24,-6.85 -29.7,-20.8l-75.68 -429.21c-2.46,-13.94 6.85,-27.24 20.79,-29.7zm-243.32 -1380.2c13.88,-2.45 27.25,6.93 29.7,20.81l106.79 605.93c2.46,13.94 -6.85,27.24 -20.8,29.7 -13.94,2.46 -27.24,-6.85 -29.7,-20.79l-106.79 -605.94c-2.46,-13.94 6.85,-27.24 20.79,-29.7zm179.51 1385.78c14.09,0 25.64,11.55 25.64,25.64l0 435.82c0,14.15 -11.48,25.64 -25.64,25.64 -14.16,0 -25.64,-11.48 -25.64,-25.64l0 -435.83c0,-14.16 11.48,-25.64 25.64,-25.64z"></path>
    <path class="fil0" d="M1359.72 825.96c14.09,0 25.64,-11.55 25.64,-25.64l0 -435.82c0,-14.15 -11.48,-25.64 -25.64,-25.64 -14.16,0 -25.64,11.48 -25.64,25.64l0 435.83c0,14.16 11.48,25.64 25.64,25.64zm-148.41 -474.14c-13.89,2.45 -23.24,15.83 -20.8,29.71l75.68 429.2c2.46,13.94 15.76,23.25 29.7,20.8 13.94,-2.46 23.25,-15.76 20.79,-29.7l-75.68 -429.21c-2.46,-13.94 -15.76,-23.25 -29.7,-20.8zm-143.89 38.56c-13.25,4.82 -20.14,19.63 -15.32,32.87l149.06 409.54c4.84,13.3 19.56,20.16 32.86,15.32 13.3,-4.85 20.16,-19.55 15.32,-32.86l-149.06 -409.55c-4.84,-13.3 -19.56,-20.16 -32.86,-15.32zm-135.01 62.96c-12.21,7.05 -16.42,22.83 -9.38,35.03l217.91 377.43c7.07,12.25 22.76,16.46 35.03,9.38 12.26,-7.08 16.46,-22.76 9.38,-35.02l-217.91 -377.44c-7.08,-12.26 -22.77,-16.46 -35.02,-9.39zm-122.02 85.45c-10.8,9.06 -12.21,25.33 -3.16,36.13l280.15 333.86c9.09,10.84 25.27,12.26 36.12,3.16 10.84,-9.1 12.26,-25.27 3.15,-36.12l-280.15 -333.87c-9.1,-10.85 -25.27,-12.26 -36.12,-3.16zm-105.33 105.33c-9.06,10.8 -7.63,27.07 3.17,36.13l333.86 280.14c10.84,9.1 27.02,7.68 36.12,-3.16 9.09,-10.85 7.68,-27.01 -3.17,-36.12l-333.87 -280.15c-10.84,-9.1 -27.02,-7.68 -36.12,3.16zm-85.44 122.03c-7.05,12.21 -2.81,27.98 9.39,35.03l377.43 217.91c12.26,7.07 27.94,2.87 35.02,-9.39 7.08,-12.26 2.87,-27.94 -9.39,-35.02l-377.44 -217.92c-12.26,-7.08 -27.94,-2.87 -35.02,9.38zm-62.96 135.01c-4.82,13.25 2.09,28.04 15.33,32.87l409.54 149.06c13.29,4.84 28.02,-2.02 32.86,-15.32 4.84,-13.31 -2.02,-28.02 -15.33,-32.86l-409.55 -149.06c-13.3,-4.84 -28.02,2.02 -32.86,15.32zm-38.55 143.89c-2.44,13.88 6.93,27.25 20.81,29.7l429.2 75.68c13.93,2.46 27.24,-6.85 29.7,-20.79 2.46,-13.94 -6.86,-27.24 -20.8,-29.7l-429.21 -75.68c-13.94,-2.46 -27.24,6.86 -29.7,20.79zm1209.06 148.39c0,14.1 11.56,25.64 25.65,25.64l435.82 0c14.15,0 25.64,-11.48 25.64,-25.64 0,-14.16 -11.48,-25.64 -25.64,-25.64l-435.83 0c-14.15,0 -25.63,11.48 -25.64,25.64zm-1222.04 0c0,14.09 11.55,25.64 25.65,25.64l435.82 0c14.15,0 25.64,-11.48 25.64,-25.64 0,-14.16 -11.48,-25.64 -25.64,-25.64l-435.83 0c-14.16,0 -25.64,11.48 -25.64,25.64zm1216.45 -63.81c2.45,13.88 15.83,23.24 29.71,20.79l429.2 -75.68c13.94,-2.46 23.25,-15.76 20.79,-29.7 -2.46,-13.94 -15.76,-23.25 -29.7,-20.79l-429.21 75.68c-13.94,2.46 -23.25,15.76 -20.79,29.7zm-16.57 -61.87c4.82,13.25 19.63,20.14 32.87,15.32l409.54 -149.06c13.3,-4.84 20.17,-19.55 15.33,-32.86 -4.84,-13.3 -19.56,-20.16 -32.86,-15.32l-409.55 149.06c-13.3,4.84 -20.16,19.56 -15.32,32.86zm-27.07 -58.05c7.05,12.21 22.83,16.42 35.03,9.38l377.43 -217.91c12.26,-7.07 16.46,-22.76 9.39,-35.02 -7.08,-12.26 -22.77,-16.46 -35.02,-9.39l-377.44 217.92c-12.26,7.08 -16.46,22.76 -9.38,35.02zm-36.74 -52.47c9.06,10.8 25.33,12.21 36.13,3.15l333.86 -280.14c10.84,-9.1 12.26,-25.27 3.16,-36.12 -9.1,-10.85 -25.28,-12.26 -36.12,-3.16l-333.87 280.15c-10.85,9.1 -12.26,25.27 -3.16,36.12zm-45.29 -45.29c10.79,9.06 27.07,7.63 36.12,-3.17l280.14 -333.86c9.1,-10.84 7.69,-27.02 -3.16,-36.12 -10.85,-9.1 -27.02,-7.68 -36.12,3.16l-280.15 333.87c-9.1,10.85 -7.68,27.02 3.16,36.12zm-52.47 -36.74c12.21,7.05 27.98,2.81 35.03,-9.39l217.91 -377.44c7.07,-12.26 2.88,-27.94 -9.39,-35.02 -12.26,-7.08 -27.94,-2.87 -35.02,9.39l-217.92 377.44c-7.08,12.26 -2.87,27.94 9.39,35.02zm-58.05 -27.07c13.25,4.82 28.05,-2.09 32.86,-15.33l149.06 -409.54c4.84,-13.3 -2.02,-28.02 -15.32,-32.86 -13.3,-4.84 -28.02,2.02 -32.86,15.33l-149.06 409.55c-4.84,13.3 2.02,28.01 15.32,32.86zm-61.87 -16.58c13.88,2.45 27.25,-6.93 29.7,-20.81l75.68 -429.2c2.46,-13.94 -6.85,-27.24 -20.79,-29.7 -13.94,-2.46 -27.24,6.85 -29.7,20.8l-75.68 429.21c-2.46,13.94 6.85,27.24 20.79,29.7z"></path>
   </g>
   <g>
    <path class="fil2" d="M8097.26 1139.93c14.11,0 26.17,4.94 36.05,14.97 10.03,9.89 14.97,21.95 14.97,36.05 0,13.95 -4.94,26.02 -14.97,36.05 -9.89,10.03 -21.95,15.12 -36.05,15.12 -14.24,0 -26.31,-5.09 -36.19,-15.12 -10.03,-10.03 -14.97,-22.1 -14.97,-36.05 0,-14.11 4.94,-26.16 14.97,-36.05 9.88,-10.03 21.95,-14.97 36.19,-14.97zm583.34 0c14.1,0 26.17,4.94 36.04,14.97 10.04,9.89 14.98,21.95 14.98,36.05 0,13.95 -4.94,26.02 -14.98,36.05 -9.87,10.03 -21.94,15.12 -36.04,15.12 -14.24,0 -26.31,-5.09 -36.2,-15.12 -10.03,-10.03 -14.97,-22.1 -14.97,-36.05 0,-14.11 4.94,-26.16 14.97,-36.05 9.89,-10.03 21.96,-14.97 36.2,-14.97zm587.35 0c14.11,0 26.18,4.94 36.05,14.97 10.03,9.89 14.97,21.95 14.97,36.05 0,13.95 -4.94,26.02 -14.97,36.05 -9.87,10.03 -21.94,15.12 -36.05,15.12 -14.24,0 -26.31,-5.09 -36.19,-15.12 -10.03,-10.03 -14.98,-22.1 -14.98,-36.05 0,-14.11 4.94,-26.16 14.98,-36.05 9.89,-10.03 21.96,-14.97 36.19,-14.97z"></path>
    <path class="fil0" d="M4313.6 833.64c198.87,0 360.14,161.27 360.14,360.14 0,198.87 -161.27,360.14 -360.14,360.14 -198.87,0 -360.13,-161.27 -360.13,-360.14 0,-198.87 161.27,-360.14 360.13,-360.14zm3994.06 611.59c14.85,6.39 28.36,9.5 40.84,9.5 17.07,0 30.73,-5.5 40.68,-16.48 9.95,-10.98 15,-27.31 15,-48.69 0,-17.22 -1.93,-33.55 -5.64,-49.14 -7.28,-31.04 -20.65,-71.28 -39.94,-120.72 -19.45,-49.45 -33.86,-94.28 -43.07,-134.67 -5.19,-22.87 -7.87,-48.4 -7.87,-76.47 0,-60.88 11.88,-105.27 35.49,-133.18 23.61,-27.77 54.35,-41.73 92.36,-41.73 17.66,0 38,3.57 60.88,10.85l0 94.42c-13.36,-6.38 -25.54,-9.49 -36.54,-9.49 -16.18,0 -29.98,6.68 -41.27,20.04 -11.28,13.37 -16.92,32.67 -16.92,58.21 0,16.77 1.78,33.4 5.49,49.58 7.13,30.44 19.16,68.3 36.38,113.44 21.67,56.57 37.42,107.2 47.22,151.89 4.89,22.57 7.42,46.77 7.42,72.61 0,51.08 -12.33,90.27 -37.12,117.6 -24.81,27.46 -55.83,41.13 -92.96,41.13 -16.18,0 -36.37,-3.71 -60.43,-11.29l0 -97.41zm608.54 -611.59l103.93 0 74.84 714.64 -96.51 0 -4.9 -127.4 -53.16 0 -9.35 127.4 -95.33 0 80.48 -714.64zm53.75 117.45l-7.72 0c-2.82,99.19 -4.9,162.59 -6.39,190.5l-10.25 186.64 41.58 0 -7.28 -144.03 -9.94 -233.11zm-3830.88 -111.81l95.62 0 0 614.55 55.83 0 0 94.44 -151.45 0 0 -708.98zm2623.33 111.81l-7.73 0c-2.82,99.18 -4.89,162.59 -6.38,190.5l-10.25 186.64 41.58 0 -7.28 -144.03 -9.94 -233.11zm-53.75 -117.45l103.94 0 74.83 714.63 -96.5 0 -4.91 -127.39 -53.15 0 -9.37 127.39 -95.32 0 80.47 -714.63zm-230.86 704.98c-12.17,10.24 -27.17,15.29 -44.84,15.29 -48.7,0 -87.61,-32.07 -116.86,-96.07 -29.1,-64.14 -43.65,-153.67 -43.65,-268.89 0,-128.73 21.53,-225.99 64.44,-291.75 27.76,-42.32 59.1,-63.56 93.99,-63.56 15.89,0 31.47,4.46 46.92,13.52l0 90.12c-9.8,-5.19 -19.31,-7.87 -28.21,-7.87 -17.81,0 -32.81,10.99 -45.29,33.11 -21.53,38.15 -32.23,109.73 -32.23,214.7 0,110.77 7.13,184.26 21.53,220.64 14.4,36.37 33.41,54.64 57.16,54.64 9.06,0 17.97,-2.96 27.03,-8.76l0 94.88zm-482.56 -699.34l95.62 0 0 708.98 -95.62 0 0 -708.98zm-328.34 101.85l0 204.31c15.44,-6.68 27.47,-19 36.37,-37.12 8.77,-18.11 13.22,-39.79 13.22,-65.03 0,-26.43 -4.31,-48.25 -13.06,-65.93 -8.61,-17.52 -20.94,-29.55 -36.53,-36.23zm-103.5 -101.85l51.38 0c59.99,0 106.76,17.22 140.32,51.82 33.4,34.44 50.18,82.7 50.18,144.77 0,35.04 -6.83,66.22 -20.49,93.54 -9.5,19.3 -24.5,37.86 -44.84,55.68 14.85,16.18 25.68,31.48 32.66,46.02 14.55,30.74 25.99,70.24 34.6,118.35 8.61,48.11 15.89,114.48 21.98,198.81l-96.52 0c-4,-105.57 -13.65,-183.08 -28.8,-232.37 -11.29,-37.12 -26.28,-63.11 -44.84,-78.25l0 310.62 -95.63 0 0 -708.98zm-394.48 0l229.99 0 0 92.65 -66.96 0 0 616.33 -95.63 0 0 -616.33 -67.41 0 0 -92.65zm-164.51 699.34c-12.18,10.24 -27.18,15.29 -44.84,15.29 -48.7,0 -87.61,-32.07 -116.85,-96.07 -29.11,-64.14 -43.66,-153.67 -43.66,-268.89 0,-128.73 21.53,-225.99 64.44,-291.75 27.76,-42.32 59.1,-63.56 93.98,-63.56 15.89,0 31.48,4.46 46.93,13.52l0 90.12c-9.81,-5.19 -19.31,-7.87 -28.22,-7.87 -17.81,0 -32.81,10.99 -45.29,33.11 -21.53,38.15 -32.22,109.73 -32.22,214.7 0,110.77 7.13,184.26 21.53,220.64 14.4,36.37 33.41,54.64 57.16,54.64 9.06,0 17.96,-2.96 27.03,-8.76l0 94.88zm-536.46 -699.34l163.17 0 0 93.98 -67.55 0 0 223.61 67.55 0 0 92.2 -67.55 0 0 206.09 67.55 0 0 93.09 -163.17 0 0 -708.98zm-1891.26 0l77.65 0 30.89 391.98 35.04 -391.98 77.65 0 69.93 708.98 -94.73 0 -22.72 -344.62 -51.38 344.62 -32.07 0 -46.92 -344.62 -25.83 344.62 -91.76 0 74.24 -708.98zm-1227.46 0l229.99 0 0 92.65 -66.96 0 0 616.33 -95.62 0 0 -616.33 -67.41 0 0 -92.65zm407.27 0l163.18 0 0 93.98 -67.56 0 0 223.61 67.56 0 0 92.2 -67.56 0 0 206.09 67.56 0 0 93.09 -163.18 0 0 -708.98zm442.46 101.85l0 204.31c15.44,-6.68 27.47,-19 36.38,-37.12 8.76,-18.11 13.21,-39.79 13.21,-65.03 0,-26.43 -4.3,-48.25 -13.07,-65.93 -8.61,-17.52 -20.93,-29.55 -36.52,-36.23zm-103.49 -101.85l51.37 0c59.99,0 106.76,17.22 140.32,51.82 33.41,34.44 50.18,82.7 50.18,144.77 0,35.04 -6.83,66.22 -20.49,93.54 -9.5,19.3 -24.49,37.86 -44.84,55.68 14.85,16.18 25.69,31.48 32.66,46.03 14.55,30.73 25.99,70.23 34.6,118.34 8.61,48.11 15.89,114.48 21.98,198.81l-96.52 0c-4.01,-105.57 -13.66,-183.07 -28.8,-232.37 -11.29,-37.12 -26.29,-63.1 -44.84,-78.25l0 310.62 -95.62 0 0 -708.98zm1704.63 0l163.17 0 0 93.98 -67.56 0 0 223.61 67.56 0 0 92.2 -67.56 0 0 206.09 67.56 0 0 93.09 -163.17 0 0 -708.98zm-486.5 86.26c148.12,0 268.23,120.11 268.23,268.23 0,148.11 -120.12,268.22 -268.23,268.22 -148.11,0 -268.23,-120.11 -268.23,-268.22 0,-148.12 120.12,-268.23 268.23,-268.23z"></path>
   </g>
  </g>
 </g>
</svg>